<svg width="46" height="41" viewBox="0 0 46 41" fill="none" xmlns="http://www.w3.org/2000/svg">
<path d="M9.70491 1.35176L0 14.3147L22.5639 40.2061L45.0585 14.3147L35.3189 1.31709L22.5639 0L9.70491 1.35176Z" fill="url(#paint0_linear_7_13839)"/>
<path d="M9.28898 14.315L9.70491 1.35199L0 14.315H9.28898Z" fill="url(#paint1_linear_7_13839)"/>
<path d="M35.8048 14.315L35.3195 1.31732L45.0591 14.315H35.8048Z" fill="url(#paint2_linear_7_13839)"/>
<path d="M9.28906 14.3147L9.70499 1.35176L22.564 0L9.28906 14.3147Z" fill="url(#paint3_linear_7_13839)"/>
<path d="M35.8052 14.3147L35.3199 1.31709L22.5302 0L35.8052 14.3147Z" fill="url(#paint4_linear_7_13839)"/>
<path d="M35.8043 14.3147H9.28906L22.564 0L35.8043 14.3147Z" fill="url(#paint5_linear_7_13839)"/>
<path d="M22.564 40.206L9.28906 14.3147H35.8043L22.564 40.206Z" fill="url(#paint6_linear_7_13839)"/>
<path d="M9.11667 14.1414L0.0703125 14.3147L9.18599 14.5227L22.5996 40.1367L9.7059 14.5227H35.4239L22.6342 40.1367L35.9092 14.5227L45.0248 14.28L36.0478 14.0721L35.3892 1.31705L35.5972 13.7255L22.7035 0.0692749L35.3199 14.1414H9.84454L22.5649 0.0692749L9.5326 13.7255L9.74056 1.35171L9.11667 14.1414Z" fill="url(#paint7_radial_7_13839)"/>
<defs>
<linearGradient id="paint0_linear_7_13839" x1="3.56713" y1="1.50773" x2="35.8723" y2="42.8575" gradientUnits="userSpaceOnUse">
<stop stop-color="#7C7AD1"/>
<stop offset="0.241554" stop-color="#253A82"/>
<stop offset="0.4" stop-color="#8489F5"/>
<stop offset="0.713254" stop-color="#4D85D8"/>
<stop offset="1" stop-color="#516DB3"/>
</linearGradient>
<linearGradient id="paint1_linear_7_13839" x1="0.768306" y1="1.8381" x2="11.3726" y2="10.9056" gradientUnits="userSpaceOnUse">
<stop stop-color="#7C7AD1"/>
<stop offset="0.241554" stop-color="#253A82"/>
<stop offset="0.4" stop-color="#8489F5"/>
<stop offset="0.713254" stop-color="#4D85D8"/>
<stop offset="1" stop-color="#516DB3"/>
</linearGradient>
<linearGradient id="paint2_linear_7_13839" x1="44.288" y1="1.80473" x2="33.6539" y2="10.9058" gradientUnits="userSpaceOnUse">
<stop stop-color="#7C7AD1"/>
<stop offset="0.241554" stop-color="#253A82"/>
<stop offset="0.4" stop-color="#8489F5"/>
<stop offset="0.713254" stop-color="#4D85D8"/>
<stop offset="1" stop-color="#516DB3"/>
</linearGradient>
<linearGradient id="paint3_linear_7_13839" x1="10.34" y1="0.536802" x2="22.1744" y2="13.0714" gradientUnits="userSpaceOnUse">
<stop stop-color="#7C7AD1"/>
<stop offset="0.241554" stop-color="#253A82"/>
<stop offset="0.4" stop-color="#8489F5"/>
<stop offset="0.713254" stop-color="#4D85D8"/>
<stop offset="1" stop-color="#516DB3"/>
</linearGradient>
<linearGradient id="paint4_linear_7_13839" x1="34.7542" y1="0.536802" x2="22.9199" y2="13.0714" gradientUnits="userSpaceOnUse">
<stop stop-color="#7C7AD1"/>
<stop offset="0.241554" stop-color="#253A82"/>
<stop offset="0.4" stop-color="#8489F5"/>
<stop offset="0.713254" stop-color="#4D85D8"/>
<stop offset="1" stop-color="#516DB3"/>
</linearGradient>
<linearGradient id="paint5_linear_7_13839" x1="11.3882" y1="0.536802" x2="20.548" y2="19.915" gradientUnits="userSpaceOnUse">
<stop stop-color="#7C7AD1"/>
<stop offset="0.241554" stop-color="#253A82"/>
<stop offset="0.4" stop-color="#8489F5"/>
<stop offset="0.713254" stop-color="#4D85D8"/>
<stop offset="1" stop-color="#516DB3"/>
</linearGradient>
<linearGradient id="paint6_linear_7_13839" x1="11.3882" y1="15.2856" x2="32.568" y2="40.0587" gradientUnits="userSpaceOnUse">
<stop stop-color="#7C7AD1"/>
<stop offset="0.241554" stop-color="#253A82"/>
<stop offset="0.4" stop-color="#8489F5"/>
<stop offset="0.713254" stop-color="#4D85D8"/>
<stop offset="1" stop-color="#516DB3"/>
</linearGradient>
<radialGradient id="paint7_radial_7_13839" cx="0" cy="0" r="1" gradientUnits="userSpaceOnUse" gradientTransform="translate(22.5302 14.3494) rotate(90) scale(25.7873 20.9948)">
<stop stop-color="white" stop-opacity="0.72"/>
<stop offset="1" stop-color="white" stop-opacity="0"/>
</radialGradient>
</defs>
</svg>
