<svg width="46" height="41" viewBox="0 0 46 41" fill="none" xmlns="http://www.w3.org/2000/svg">
<path d="M9.70491 1.35176L0 14.3147L22.5639 40.2061L45.0585 14.3147L35.3189 1.31709L22.5639 0L9.70491 1.35176Z" fill="white"/>
<path d="M9.28898 14.315L9.70491 1.35199L0 14.315H9.28898Z" fill="white"/>
<path d="M35.8048 14.315L35.3195 1.31732L45.0591 14.315H35.8048Z" fill="white"/>
<path d="M9.28906 14.3147L9.70499 1.35176L22.564 0L9.28906 14.3147Z" fill="white"/>
<path d="M35.8052 14.3147L35.3199 1.31709L22.5302 0L35.8052 14.3147Z" fill="white"/>
<path d="M35.8043 14.3147H9.28906L22.564 0L35.8043 14.3147Z" fill="white"/>
<path d="M22.564 40.206L9.28906 14.3147H35.8043L22.564 40.206Z" fill="white"/>
<path d="M9.11667 14.1414L0.0703125 14.3147L9.18599 14.5227L22.5996 40.1367L9.7059 14.5227H35.4239L22.6342 40.1367L35.9092 14.5227L45.0248 14.28L36.0478 14.0721L35.3892 1.31705L35.5972 13.7255L22.7035 0.0692749L35.3199 14.1414H9.84454L22.5649 0.0692749L9.5326 13.7255L9.74056 1.35171L9.11667 14.1414Z" fill="black"/>
</svg>
