<svg width="46" height="41" viewBox="0 0 46 41" fill="none" xmlns="http://www.w3.org/2000/svg">
<path d="M9.70491 1.35176L0 14.3147L22.5639 40.2061L45.0585 14.3147L35.3189 1.31709L22.5639 0L9.70491 1.35176Z" fill="url(#paint0_linear_7_13828)"/>
<path d="M9.28898 14.315L9.70491 1.35199L0 14.315H9.28898Z" fill="url(#paint1_linear_7_13828)"/>
<path d="M35.8048 14.315L35.3195 1.31735L45.0591 14.315H35.8048Z" fill="url(#paint2_linear_7_13828)"/>
<path d="M9.28906 14.3147L9.70499 1.35176L22.564 0L9.28906 14.3147Z" fill="url(#paint3_linear_7_13828)"/>
<path d="M35.8052 14.3147L35.3199 1.31709L22.5302 0L35.8052 14.3147Z" fill="url(#paint4_linear_7_13828)"/>
<path d="M35.8043 14.3147H9.28906L22.564 0L35.8043 14.3147Z" fill="url(#paint5_linear_7_13828)"/>
<path d="M22.564 40.206L9.28906 14.3147H35.8043L22.564 40.206Z" fill="url(#paint6_linear_7_13828)"/>
<path d="M9.11667 14.1414L0.0703125 14.3147L9.18599 14.5227L22.5996 40.1367L9.7059 14.5227H35.4239L22.6342 40.1367L35.9092 14.5227L45.0248 14.2801L36.0478 14.0721L35.3892 1.31708L35.5972 13.7255L22.7035 0.0693054L35.3199 14.1414H9.84454L22.5649 0.0693054L9.5326 13.7255L9.74056 1.35174L9.11667 14.1414Z" fill="url(#paint7_radial_7_13828)"/>
<defs>
<linearGradient id="paint0_linear_7_13828" x1="7.13426" y1="5.69586" x2="34.1132" y2="43.2164" gradientUnits="userSpaceOnUse">
<stop stop-color="#B6947E"/>
<stop offset="0.2" stop-color="#8F6959"/>
<stop offset="0.475" stop-color="#F8DAC8"/>
<stop offset="0.67" stop-color="#AC836E"/>
<stop offset="0.83" stop-color="#B6947E"/>
<stop offset="1" stop-color="#F8DCCB"/>
</linearGradient>
<linearGradient id="paint1_linear_7_13828" x1="1.53661" y1="3.18841" x2="10.6877" y2="11.6903" gradientUnits="userSpaceOnUse">
<stop stop-color="#B6947E"/>
<stop offset="0.2" stop-color="#8F6959"/>
<stop offset="0.475" stop-color="#F8DAC8"/>
<stop offset="0.67" stop-color="#AC836E"/>
<stop offset="0.83" stop-color="#B6947E"/>
<stop offset="1" stop-color="#F8DCCB"/>
</linearGradient>
<linearGradient id="paint2_linear_7_13828" x1="43.517" y1="3.15869" x2="34.3409" y2="11.6915" gradientUnits="userSpaceOnUse">
<stop stop-color="#B6947E"/>
<stop offset="0.2" stop-color="#8F6959"/>
<stop offset="0.475" stop-color="#F8DAC8"/>
<stop offset="0.67" stop-color="#AC836E"/>
<stop offset="0.83" stop-color="#B6947E"/>
<stop offset="1" stop-color="#F8DCCB"/>
</linearGradient>
<linearGradient id="paint3_linear_7_13828" x1="11.3909" y1="2.02792" x2="21.4244" y2="13.5747" gradientUnits="userSpaceOnUse">
<stop stop-color="#B6947E"/>
<stop offset="0.2" stop-color="#8F6959"/>
<stop offset="0.475" stop-color="#F8DAC8"/>
<stop offset="0.67" stop-color="#AC836E"/>
<stop offset="0.83" stop-color="#B6947E"/>
<stop offset="1" stop-color="#F8DCCB"/>
</linearGradient>
<linearGradient id="paint4_linear_7_13828" x1="33.7033" y1="2.02792" x2="23.6698" y2="13.5747" gradientUnits="userSpaceOnUse">
<stop stop-color="#B6947E"/>
<stop offset="0.2" stop-color="#8F6959"/>
<stop offset="0.475" stop-color="#F8DAC8"/>
<stop offset="0.67" stop-color="#AC836E"/>
<stop offset="0.83" stop-color="#B6947E"/>
<stop offset="1" stop-color="#F8DCCB"/>
</linearGradient>
<linearGradient id="paint5_linear_7_13828" x1="13.4873" y1="2.02792" x2="20.9005" y2="19.0682" gradientUnits="userSpaceOnUse">
<stop stop-color="#B6947E"/>
<stop offset="0.2" stop-color="#8F6959"/>
<stop offset="0.475" stop-color="#F8DAC8"/>
<stop offset="0.67" stop-color="#AC836E"/>
<stop offset="0.83" stop-color="#B6947E"/>
<stop offset="1" stop-color="#F8DCCB"/>
</linearGradient>
<linearGradient id="paint6_linear_7_13828" x1="13.4873" y1="17.9827" x2="31.3002" y2="40.6205" gradientUnits="userSpaceOnUse">
<stop stop-color="#B6947E"/>
<stop offset="0.2" stop-color="#8F6959"/>
<stop offset="0.475" stop-color="#F8DAC8"/>
<stop offset="0.67" stop-color="#AC836E"/>
<stop offset="0.83" stop-color="#B6947E"/>
<stop offset="1" stop-color="#F8DCCB"/>
</linearGradient>
<radialGradient id="paint7_radial_7_13828" cx="0" cy="0" r="1" gradientUnits="userSpaceOnUse" gradientTransform="translate(22.5302 14.3494) rotate(90) scale(25.7873 20.9948)">
<stop stop-color="white" stop-opacity="0.72"/>
<stop offset="1" stop-color="white" stop-opacity="0"/>
</radialGradient>
</defs>
</svg>
