<svg width="20" height="20" viewBox="0 0 20 20" fill="none" xmlns="http://www.w3.org/2000/svg">
<path d="M11.3374 2.13108C11.3812 1.78008 11.1885 1.44217 10.864 1.30132C10.5395 1.16047 10.161 1.25039 9.93455 1.52213L2.81938 10.0603C2.69642 10.2078 2.57188 10.3572 2.4812 10.4885C2.39544 10.6127 2.23886 10.8568 2.23402 11.1776C2.22848 11.545 2.39216 11.8944 2.67788 12.1253C2.92746 12.327 3.21524 12.363 3.36553 12.3766C3.52443 12.391 3.71892 12.3909 3.91095 12.3909L8.84724 12.3909L8.16238 17.8698C8.11851 18.2208 8.31128 18.5587 8.63576 18.6995C8.96024 18.8404 9.33873 18.7505 9.56518 18.4787L16.6803 9.94054C16.8033 9.79304 16.9279 9.64365 17.0185 9.51236C17.1043 9.38819 17.2609 9.14407 17.2657 8.82323C17.2713 8.45592 17.1076 8.10646 16.8219 7.87557C16.5723 7.67389 16.2845 7.63789 16.1342 7.62429C15.9753 7.6099 15.7808 7.60994 15.5888 7.60997L10.6525 7.60998L11.3374 2.13108Z" fill="url(#paint0_linear_7_13768)"/>
<defs>
<linearGradient id="paint0_linear_7_13768" x1="13.0137" y1="1.63379" x2="3.98911" y2="5.57521" gradientUnits="userSpaceOnUse">
<stop stop-color="#EDA63C"/>
<stop offset="1" stop-color="#FFC75E"/>
</linearGradient>
</defs>
</svg>
