<svg width="20" height="20" viewBox="0 0 20 20" fill="none" xmlns="http://www.w3.org/2000/svg">
<path d="M10.7648 1.85247C10.4394 1.69733 10.0613 1.69733 9.73595 1.85247C9.45467 1.98659 9.29958 2.21945 9.22136 2.34719C9.14051 2.47926 9.05751 2.64749 8.97661 2.81147L7.25889 6.2914L3.41658 6.85301C3.23571 6.87941 3.05012 6.9065 2.89959 6.94269C2.75397 6.97771 2.48471 7.05345 2.27044 7.27962C2.02256 7.54127 1.90598 7.9008 1.95317 8.25813C1.99396 8.567 2.16754 8.78632 2.26491 8.90013C2.36556 9.01777 2.49995 9.14861 2.63092 9.27612L5.41006 11.983L4.7543 15.8064C4.72335 15.9866 4.69159 16.1716 4.67936 16.326C4.66754 16.4753 4.65611 16.7549 4.80488 17.0288C4.97695 17.3456 5.28283 17.5678 5.63732 17.6335C5.94378 17.6903 6.20615 17.593 6.34451 17.5356C6.48758 17.4763 6.65365 17.3889 6.81553 17.3037L10.2504 15.4974L13.6852 17.3037C13.8471 17.3889 14.0131 17.4763 14.1562 17.5356C14.2946 17.593 14.5569 17.6903 14.8634 17.6335C15.2179 17.5678 15.5238 17.3456 15.6958 17.0288C15.8446 16.7549 15.8332 16.4753 15.8213 16.326C15.8091 16.1716 15.7774 15.9867 15.7464 15.8064L15.0906 11.983L17.8698 9.27609C18.0008 9.14859 18.1351 9.01776 18.2358 8.90013C18.3332 8.78632 18.5067 8.567 18.5475 8.25813C18.5947 7.9008 18.4781 7.54127 18.2303 7.27962C18.016 7.05345 17.7467 6.97771 17.6011 6.94269C17.4506 6.9065 17.265 6.87941 17.0841 6.85301L13.2418 6.2914L11.5241 2.81152C11.4432 2.64754 11.3602 2.47927 11.2793 2.34719C11.2011 2.21945 11.046 1.98659 10.7648 1.85247Z" fill="url(#paint0_linear_7_13745)"/>
<defs>
<linearGradient id="paint0_linear_7_13745" x1="13.8579" y1="2.09781" x2="4.59836" y2="7.02146" gradientUnits="userSpaceOnUse">
<stop stop-color="#EDA63C"/>
<stop offset="1" stop-color="#FFC75E"/>
</linearGradient>
</defs>
</svg>
