<svg width="91" height="19" viewBox="0 0 91 19" fill="none" xmlns="http://www.w3.org/2000/svg">
<path d="M17.854 2.556V18H14.092V8.738L10.638 18H7.602L4.126 8.716V18H0.364V2.556H4.808L9.142 13.248L13.432 2.556H17.854ZM19.8113 11.84C19.8113 10.5787 20.046 9.47133 20.5153 8.518C20.9993 7.56467 21.652 6.83133 22.4733 6.318C23.2946 5.80467 24.2113 5.548 25.2233 5.548C26.0886 5.548 26.844 5.724 27.4893 6.076C28.1493 6.428 28.6553 6.89 29.0073 7.462V5.724H32.7693V18H29.0073V16.262C28.6406 16.834 28.1273 17.296 27.4673 17.648C26.822 18 26.0666 18.176 25.2013 18.176C24.204 18.176 23.2946 17.9193 22.4733 17.406C21.652 16.878 20.9993 16.1373 20.5153 15.184C20.046 14.216 19.8113 13.1013 19.8113 11.84ZM29.0073 11.862C29.0073 10.9233 28.7433 10.1827 28.2153 9.64C27.702 9.09733 27.0713 8.826 26.3233 8.826C25.5753 8.826 24.9373 9.09733 24.4093 9.64C23.896 10.168 23.6393 10.9013 23.6393 11.84C23.6393 12.7787 23.896 13.5267 24.4093 14.084C24.9373 14.6267 25.5753 14.898 26.3233 14.898C27.0713 14.898 27.702 14.6267 28.2153 14.084C28.7433 13.5413 29.0073 12.8007 29.0073 11.862ZM39.253 7.77C39.693 7.09533 40.243 6.56733 40.903 6.186C41.563 5.79 42.2963 5.592 43.103 5.592V9.574H42.069C41.1303 9.574 40.4263 9.77933 39.957 10.19C39.4876 10.586 39.253 11.29 39.253 12.302V18H35.491V5.724H39.253V7.77ZM46.7931 4.448C46.1331 4.448 45.5904 4.25733 45.1651 3.876C44.7544 3.48 44.5491 2.996 44.5491 2.424C44.5491 1.83733 44.7544 1.35333 45.1651 0.971999C45.5904 0.575999 46.1331 0.377999 46.7931 0.377999C47.4384 0.377999 47.9664 0.575999 48.3771 0.971999C48.8024 1.35333 49.0151 1.83733 49.0151 2.424C49.0151 2.996 48.8024 3.48 48.3771 3.876C47.9664 4.25733 47.4384 4.448 46.7931 4.448ZM48.6631 5.724V18H44.9011V5.724H48.6631ZM56.9774 18.176C55.7747 18.176 54.6894 17.9193 53.7214 17.406C52.7681 16.8927 52.0127 16.1593 51.4554 15.206C50.9127 14.2527 50.6414 13.138 50.6414 11.862C50.6414 10.6007 50.9201 9.49333 51.4774 8.54C52.0347 7.572 52.7974 6.83133 53.7654 6.318C54.7334 5.80467 55.8187 5.548 57.0214 5.548C58.2241 5.548 59.3094 5.80467 60.2774 6.318C61.2454 6.83133 62.0081 7.572 62.5654 8.54C63.1227 9.49333 63.4014 10.6007 63.4014 11.862C63.4014 13.1233 63.1154 14.238 62.5434 15.206C61.9861 16.1593 61.2161 16.8927 60.2334 17.406C59.2654 17.9193 58.1801 18.176 56.9774 18.176ZM56.9774 14.92C57.6961 14.92 58.3047 14.656 58.8034 14.128C59.3167 13.6 59.5734 12.8447 59.5734 11.862C59.5734 10.8793 59.3241 10.124 58.8254 9.596C58.3414 9.068 57.7401 8.804 57.0214 8.804C56.2881 8.804 55.6794 9.068 55.1954 9.596C54.7114 10.1093 54.4694 10.8647 54.4694 11.862C54.4694 12.8447 54.7041 13.6 55.1734 14.128C55.6574 14.656 56.2587 14.92 56.9774 14.92ZM84.5573 2.556L79.0793 18H74.3713L68.8933 2.556H72.8973L76.7253 14.216L80.5753 2.556H84.5573ZM87.8896 18.176C87.2296 18.176 86.687 17.9853 86.2616 17.604C85.851 17.208 85.6456 16.724 85.6456 16.152C85.6456 15.5653 85.851 15.074 86.2616 14.678C86.687 14.282 87.2296 14.084 87.8896 14.084C88.535 14.084 89.063 14.282 89.4736 14.678C89.899 15.074 90.1116 15.5653 90.1116 16.152C90.1116 16.724 89.899 17.208 89.4736 17.604C89.063 17.9853 88.535 18.176 87.8896 18.176Z" fill="url(#paint0_linear_4299_26680)"/>
<defs>
<linearGradient id="paint0_linear_4299_26680" x1="-0.146713" y1="-6" x2="71.826" y2="51.1479" gradientUnits="userSpaceOnUse">
<stop stop-color="#1280BE"/>
<stop offset="1" stop-color="#6319A9"/>
</linearGradient>
</defs>
</svg>
