<svg xmlns="http://www.w3.org/2000/svg" xmlns:xlink="http://www.w3.org/1999/xlink" id="visual" viewBox="0 0 540 960" width="540" height="960" version="1.1"><path d="M0 364L18 364.3C36 364.7 72 365.3 108 380.3C144 395.3 180 424.7 216 453.5C252 482.3 288 510.7 324 519C360 527.3 396 515.7 432 488.2C468 460.7 504 417.3 522 395.7L540 374L540 0L522 0C504 0 468 0 432 0C396 0 360 0 324 0C288 0 252 0 216 0C180 0 144 0 108 0C72 0 36 0 18 0L0 0Z" fill="#000000"/><path d="M0 404L18 396.7C36 389.3 72 374.7 108 376.8C144 379 180 398 216 396.2C252 394.3 288 371.7 324 379.8C360 388 396 427 432 423.2C468 419.3 504 372.7 522 349.3L540 326L540 0L522 0C504 0 468 0 432 0C396 0 360 0 324 0C288 0 252 0 216 0C180 0 144 0 108 0C72 0 36 0 18 0L0 0Z" fill="#001e6d"/><path d="M0 390L18 384.3C36 378.7 72 367.3 108 358.8C144 350.3 180 344.7 216 341C252 337.3 288 335.7 324 319.3C360 303 396 272 432 262C468 252 504 263 522 268.5L540 274L540 0L522 0C504 0 468 0 432 0C396 0 360 0 324 0C288 0 252 0 216 0C180 0 144 0 108 0C72 0 36 0 18 0L0 0Z" fill="#00368d"/><path d="M0 228L18 235.8C36 243.7 72 259.3 108 255C144 250.7 180 226.3 216 227.7C252 229 288 256 324 268.5C360 281 396 279 432 277C468 275 504 273 522 272L540 271L540 0L522 0C504 0 468 0 432 0C396 0 360 0 324 0C288 0 252 0 216 0C180 0 144 0 108 0C72 0 36 0 18 0L0 0Z" fill="#1751ae"/><path d="M0 205L18 192C36 179 72 153 108 153.3C144 153.7 180 180.3 216 189.3C252 198.3 288 189.7 324 183.8C360 178 396 175 432 182.5C468 190 504 208 522 217L540 226L540 0L522 0C504 0 468 0 432 0C396 0 360 0 324 0C288 0 252 0 216 0C180 0 144 0 108 0C72 0 36 0 18 0L0 0Z" fill="#336cce"/><path d="M0 61L18 63.2C36 65.3 72 69.7 108 83.2C144 96.7 180 119.3 216 127C252 134.7 288 127.3 324 126.7C360 126 396 132 432 128.8C468 125.7 504 113.3 522 107.2L540 101L540 0L522 0C504 0 468 0 432 0C396 0 360 0 324 0C288 0 252 0 216 0C180 0 144 0 108 0C72 0 36 0 18 0L0 0Z" fill="#4b89ef"/></svg>