<svg width="168" height="150" viewBox="0 0 168 150" fill="none" xmlns="http://www.w3.org/2000/svg">
<path d="M42 55C42 41.7452 52.7452 31 66 31H106C119.255 31 130 41.7452 130 55V95C130 108.255 119.255 119 106 119H66C52.7452 119 42 108.255 42 95V55Z" fill="#272727"/>
<path d="M62.6666 75.0003C62.6666 64.0009 62.6666 58.5012 66.0837 55.0841C69.5008 51.667 75.0005 51.667 86 51.667C96.9994 51.667 102.499 51.667 105.916 55.0841C109.333 58.5012 109.333 64.0009 109.333 75.0003C109.333 85.9998 109.333 91.4995 105.916 94.9166C102.499 98.3337 96.9994 98.3337 86 98.3337C75.0005 98.3337 69.5008 98.3337 66.0837 94.9166C62.6666 91.4995 62.6666 85.9998 62.6666 75.0003Z" stroke="#F9F9F9" stroke-width="3.5"/>
<path d="M62.6666 77.333H70.0406C72.1526 77.333 73.2087 77.333 74.1369 77.7599C75.0652 78.1869 75.7524 78.9887 77.127 80.5923L78.5396 82.2404C79.9141 83.844 80.6014 84.6458 81.5297 85.0727C82.4579 85.4997 83.514 85.4997 85.626 85.4997H86.3739C88.486 85.4997 89.542 85.4997 90.4703 85.0727C91.3985 84.6458 92.0858 83.844 93.4603 82.2404L94.873 80.5923C96.2475 78.9887 96.9347 78.1869 97.863 77.7599C98.7913 77.333 99.8473 77.333 101.959 77.333H109.333" stroke="#F9F9F9" stroke-width="3.5" stroke-linecap="round"/>
<path d="M143.602 25.5982C146.415 27.3718 149.136 25.6293 148.901 23.0091C148.726 20.8142 145.936 18.959 143.845 20.011C143.369 20.2973 142.972 20.6962 142.689 21.1724C142.405 21.6485 142.245 22.187 142.221 22.74C142.197 23.293 142.31 23.8433 142.551 24.342C142.793 24.8406 143.154 25.2722 143.602 25.5982ZM147.534 22.9146C147.641 23.2505 147.614 23.6143 147.459 23.9308C147.304 24.2474 147.032 24.4926 146.701 24.6159C143.083 25.5955 142.92 21.2711 145.102 21.2005C145.637 21.1945 146.16 21.357 146.597 21.6648C147.034 21.9726 147.362 22.41 147.534 22.9146ZM160.232 27.6131C160.563 28.8598 161.04 30.0634 161.653 31.1991C161.295 31.1161 161.172 31.2433 159.896 31.9916C157.508 33.35 157.478 33.2981 157.37 33.6119C157.349 33.7072 157.354 33.8066 157.387 33.8987C157.42 33.9908 157.478 34.0719 157.555 34.1325C157.632 34.1931 157.724 34.2309 157.821 34.2414C157.919 34.2519 158.017 34.2347 158.105 34.1919C158.462 33.9894 159.6 33.5252 160.506 33.1364C161.862 32.5487 161.991 32.5327 162.113 32.2226C162.162 32.3091 163.216 34.5898 163.55 35.455C163.614 35.5517 163.707 35.6248 163.817 35.6632C163.926 35.7017 164.045 35.7033 164.156 35.6679C164.266 35.6324 164.362 35.5619 164.428 35.467C164.494 35.3722 164.528 35.2583 164.523 35.1428C164.322 34.5915 163.666 32.3605 163.528 31.8191C163.391 31.2777 163.253 31.5397 163.469 31.4743C164.85 30.7924 166.19 30.0305 167.481 29.1923C167.609 29.1302 167.709 29.0228 167.761 28.8911C167.814 28.7594 167.815 28.613 167.764 28.4806C167.695 28.3589 167.579 28.2699 167.444 28.233C167.308 28.196 167.163 28.2143 167.041 28.2837C166.711 28.4714 163.374 29.922 162.984 30.1665C162.881 30.2278 162.796 30.3157 162.739 30.421C162.584 29.9698 161.316 27.3751 161.306 27.3578C161.272 27.2159 161.183 27.0932 161.058 27.0168C160.934 26.9404 160.784 26.9164 160.641 26.9503C160.499 26.9841 160.376 27.073 160.299 27.1973C160.222 27.3216 160.198 27.4712 160.232 27.6131ZM16.3454 66.9629C16.1778 64.6604 13.2974 62.788 11.1325 63.8931C10.7446 64.1241 10.4063 64.429 10.1367 64.7903C9.86714 65.1517 9.67168 65.5624 9.56147 65.999C9.45127 66.4357 9.42847 66.8897 9.49439 67.3351C9.56032 67.7805 9.71368 68.2086 9.9457 68.595C11.713 71.6397 16.6378 70.227 16.3454 66.9629ZM12.9577 65.0692C14.7225 65.4767 15.9953 67.6783 14.0847 68.6043C13.7399 68.853 13.3185 68.9733 12.8938 68.9444C12.4692 68.9156 12.0681 68.7393 11.7604 68.4463C10.2106 67.0676 11.1755 64.6717 12.9403 65.0791L12.9577 65.0692ZM7.95145 86.3188C7.75451 85.7539 7.07591 83.4437 6.94717 82.8974C6.90797 82.7687 6.8402 82.6504 6.74888 82.5513C8.22894 81.8729 9.65416 81.0815 11.0118 80.1842C11.1339 80.1147 11.2233 79.9998 11.2604 79.8647C11.2974 79.7296 11.2791 79.5854 11.2094 79.4638C11.1397 79.3421 11.0244 79.253 10.8888 79.2161C10.7532 79.1792 10.6084 79.1975 10.4864 79.2669C10.3474 79.3459 9.46905 79.7422 8.66513 80.1077C6.32284 81.1645 6.1678 81.1953 6.01012 81.5029C5.86025 81.0604 4.5319 78.3397 4.53067 78.3174C4.48444 78.1873 4.39149 78.0789 4.26974 78.0131C4.148 77.9473 4.00611 77.9288 3.87147 77.9612C3.73683 77.9935 3.61899 78.0745 3.54074 78.1883C3.46247 78.3022 3.42934 78.4409 3.44773 78.5777C3.78951 79.8805 4.29219 81.1361 4.94427 82.3156C4.55734 82.203 4.39601 82.3636 3.10322 83.1218C0.636726 84.5246 0.611954 84.4813 0.538638 84.7754C0.517001 84.8707 0.522822 84.9701 0.555451 85.0622C0.588082 85.1543 0.646182 85.2353 0.723047 85.296C0.799899 85.3566 0.892391 85.3943 0.989854 85.4049C1.08732 85.4154 1.18578 85.3982 1.27388 85.3554C1.64732 85.143 2.8172 84.6727 3.74889 84.269C5.11355 83.6764 5.2959 83.653 5.42506 83.3157C5.50934 83.4628 6.52289 85.6742 6.91435 86.6792C6.9381 86.747 6.97503 86.8095 7.02303 86.8632C7.07103 86.9168 7.12916 86.9605 7.19411 86.9917C7.25905 87.023 7.32954 87.0412 7.40154 87.0453C7.47355 87.0494 7.54565 87.0393 7.61376 87.0156C7.68185 86.992 7.7446 86.9552 7.79843 86.9074C7.85225 86.8595 7.89608 86.8016 7.92745 86.7369C7.95881 86.6722 7.97707 86.602 7.98119 86.5302C7.9853 86.4585 7.9752 86.3866 7.95145 86.3188Z" fill="#F9F9F9"/>
</svg>
